<svg xmlns="http://www.w3.org/2000/svg" viewBox="0 0 760 330" width="760" height="330" font-size="13"><line x1="60" y1="290" x2="360" y2="290" class="f-axis"/><line x1="60" y1="20" x2="60" y2="290" class="f-axis"/><line x1="60" y1="290" x2="60" y2="294" class="f-axis"/><text x="60" y="308" font-size="12" text-anchor="middle" class="f-muted">0</text><line x1="210" y1="290" x2="210" y2="294" class="f-axis"/><text x="210" y="308" font-size="12" text-anchor="middle" class="f-muted">5</text><line x1="360" y1="290" x2="360" y2="294" class="f-axis"/><text x="360" y="308" font-size="12" text-anchor="middle" class="f-muted">10</text><text x="52" y="294" font-size="12" text-anchor="end" class="f-muted">0</text><text x="52" y="159" font-size="12" text-anchor="end" class="f-muted">5</text><text x="52" y="24" font-size="12" text-anchor="end" class="f-muted">10</text><text x="210" y="328" font-size="13" text-anchor="middle" class="f-muted">λ₁</text><text x="20" y="12" font-size="13" text-anchor="start" class="f-muted">λ₂</text><path d="M86,79.6 L89.4,162.7 L92.8,185.6 L96.3,199.9 L99.7,210 L103.1,217.7 L106.5,223.8 L110,228.8 L113.4,233 L116.8,236.5 L120.2,239.6 L123.7,242.2 L127.1,244.5 L130.5,246.5 L133.9,248.3 L137.4,250 L140.8,251.4 L144.2,252.7 L147.6,253.9 L151.1,255 L154.5,255.9 L157.9,256.8 L161.3,257.7 L164.8,258.4 L168.2,259.1 L171.6,259.7 L175,260.3 L178.5,260.8 L181.9,261.3 L185.3,261.8 L188.7,262.2 L192.2,262.6 L195.6,263 L199,263.3 L202.4,263.6 L205.9,263.9 L209.3,264.2 L212.7,264.4 L216.1,264.6 L219.6,264.9 L223,265 L226.4,265.2 L229.8,265.4 L233.3,265.5 L236.7,265.7 L240.1,265.8 L243.5,265.9 L247,266 L250.4,266.1 L253.8,266.2 L257.2,266.3 L260.7,266.3 L264.1,266.4 L267.5,266.4 L270.9,266.5 L274.4,266.5 L277.8,266.6 L281.2,266.6 L284.6,266.6 L288.1,266.6 L291.5,266.6 L294.9,266.6 L298.3,266.6 L301.8,266.6 L305.2,266.6 L308.6,266.6 L312,266.6 L315.5,266.5 L318.9,266.5 L322.3,266.5 L325.7,266.4 L329.2,266.4 L332.6,266.3 L336,266.3 L339.4,266.2 L342.9,266.2 L346.3,266.1 L349.7,266.1 L353.1,266 L356.6,265.9 L360,265.9 L360,20 L356.6,20 L353.1,20 L349.7,20 L346.3,20 L342.9,20 L339.4,20 L336,20 L332.6,20 L329.2,20 L325.7,20 L322.3,20 L318.9,20 L315.5,20 L312,20 L308.6,20 L305.2,20 L301.8,20 L298.3,20 L294.9,20 L291.5,20 L288.1,20 L284.6,20 L281.2,20 L277.8,20 L274.4,20 L270.9,20 L267.5,20 L264.1,20 L260.7,20 L257.2,20 L253.8,20 L250.4,20 L247,20 L243.5,20 L240.1,20 L236.7,20 L233.3,20 L229.8,20 L226.4,20 L223,20 L219.6,20 L216.1,20 L212.7,20 L209.3,20 L205.9,20 L202.4,20 L199,20 L195.6,20 L192.2,20 L188.7,20 L185.3,20 L181.9,20 L178.5,20 L175,20 L171.6,20 L168.2,20 L164.8,20 L161.3,20 L157.9,20 L154.5,20 L151.1,20 L147.6,20 L144.2,20 L140.8,20 L137.4,20 L133.9,20 L130.5,20 L127.1,20 L123.7,20 L120.2,20 L116.8,20 L113.4,20 L110,20 L106.5,20 L103.1,20 L99.7,20 L96.3,20 L92.8,20 L89.4,20 L86,79.6 Z" class="f-a-fill"/><path d="M86,79.6 L89.4,162.7 L92.8,185.6 L96.3,199.9 L99.7,210 L103.1,217.7 L106.5,223.8 L110,228.8 L113.4,233 L116.8,236.5 L120.2,239.6 L123.7,242.2 L127.1,244.5 L130.5,246.5 L133.9,248.3 L137.4,250 L140.8,251.4 L144.2,252.7 L147.6,253.9 L151.1,255 L154.5,255.9 L157.9,256.8 L161.3,257.7 L164.8,258.4 L168.2,259.1 L171.6,259.7 L175,260.3 L178.5,260.8 L181.9,261.3 L185.3,261.8 L188.7,262.2 L192.2,262.6 L195.6,263 L199,263.3 L202.4,263.6 L205.9,263.9 L209.3,264.2 L212.7,264.4 L216.1,264.6 L219.6,264.9 L223,265 L226.4,265.2 L229.8,265.4 L233.3,265.5 L236.7,265.7 L240.1,265.8 L243.5,265.9 L247,266 L250.4,266.1 L253.8,266.2 L257.2,266.3 L260.7,266.3 L264.1,266.4 L267.5,266.4 L270.9,266.5 L274.4,266.5 L277.8,266.6 L281.2,266.6 L284.6,266.6 L288.1,266.6 L291.5,266.6 L294.9,266.6 L298.3,266.6 L301.8,266.6 L305.2,266.6 L308.6,266.6 L312,266.6 L315.5,266.5 L318.9,266.5 L322.3,266.5 L325.7,266.4 L329.2,266.4 L332.6,266.3 L336,266.3 L339.4,266.2 L342.9,266.2 L346.3,266.1 L349.7,266.1 L353.1,266 L356.6,265.9 L360,265.9 L360,20 L356.6,20 L353.1,20 L349.7,20 L346.3,20 L342.9,20 L339.4,20 L336,20 L332.6,20 L329.2,20 L325.7,20 L322.3,20 L318.9,20 L315.5,20 L312,20 L308.6,20 L305.2,20 L301.8,20 L298.3,20 L294.9,20 L291.5,20 L288.1,20 L284.6,20 L281.2,20 L277.8,20 L274.4,20 L270.9,20 L267.5,20 L264.1,20 L260.7,20 L257.2,20 L253.8,20 L250.4,20 L247,20 L243.5,20 L240.1,20 L236.7,20 L233.3,20 L229.8,20 L226.4,20 L223,20 L219.6,20 L216.1,20 L212.7,20 L209.3,20 L205.9,20 L202.4,20 L199,20 L195.6,20 L192.2,20 L188.7,20 L185.3,20 L181.9,20 L178.5,20 L175,20 L171.6,20 L168.2,20 L164.8,20 L161.3,20 L157.9,20 L154.5,20 L151.1,20 L147.6,20 L144.2,20 L140.8,20 L137.4,20 L133.9,20 L130.5,20 L127.1,20 L123.7,20 L120.2,20 L116.8,20 L113.4,20 L110,20 L106.5,20 L103.1,20 L99.7,20 L96.3,20 L92.8,20 L89.4,20 L86,79.6 Z" class="f-a-line"/><path d="M60,290 L360,275 L360,290 Z" class="f-b-fill"/><path d="M60,290 L76.7,20 L60,20 Z" class="f-b-fill"/><text x="243" y="125.3" font-size="13" text-anchor="middle" font-weight="600" class="f-a">corner</text><text x="368" y="285.9" font-size="13" text-anchor="start" font-weight="600" class="f-b">edge</text><text x="69" y="14" font-size="13" text-anchor="middle" font-weight="600" class="f-b">edge</text><text x="87" y="265.7" font-size="13" text-anchor="start" font-weight="600" class="f-muted">flat</text><text x="404" y="70" font-size="13.5" text-anchor="start" font-weight="600" class="f-ink">R = λ₁λ₂ − k(λ₁ + λ₂)²</text><text x="404" y="94" font-size="12.5" text-anchor="start" class="f-muted">Both eigenvalues large: R is large</text><text x="404" y="111" font-size="12.5" text-anchor="start" class="f-muted">and positive, a corner.</text><text x="404" y="137" font-size="12.5" text-anchor="start" class="f-muted">One large, one small: R &lt; 0, an edge.</text><text x="404" y="163" font-size="12.5" text-anchor="start" class="f-muted">Both small: |R| is small, a flat patch.</text><text x="404" y="197" font-size="12.5" text-anchor="start" class="f-muted">Drawn for k = 0.05; the corner</text><text x="404" y="214" font-size="12.5" text-anchor="start" class="f-muted">boundary is R = 3.</text></svg>