<svg xmlns="http://www.w3.org/2000/svg" viewBox="0 0 760 292" width="760" height="292" font-size="13"><style>.f-ink{fill:#1b1f23}.f-muted{fill:#5f6971}.f-faint{fill:#8a939b}.f-i{font-style:italic}.f-axis{stroke:#5f6971;stroke-width:1.2;fill:none}.f-grid{stroke:#e3dfd5;stroke-width:1;fill:none}.f-line{stroke:#1b1f23;stroke-width:1.4;fill:none}.f-dash{stroke-dasharray:5 4}.f-arrow{fill:#5f6971}.f-box{fill:#ffffff;stroke:#bdb7aa;stroke-width:1.2}.f-a{fill:#26647f}.f-a-line{stroke:#26647f;stroke-width:2.2;fill:none}.f-a-fill{fill:#26647f;fill-opacity:.22;stroke:none}.f-a-solid{fill:#26647f;stroke:none}.f-b{fill:#b4581f}.f-b-line{stroke:#b4581f;stroke-width:2.2;fill:none}.f-b-fill{fill:#b4581f;fill-opacity:.22;stroke:none}.f-b-solid{fill:#b4581f;stroke:none}.f-c{fill:#2f7d52}.f-c-line{stroke:#2f7d52;stroke-width:2.2;fill:none}.f-c-fill{fill:#2f7d52;fill-opacity:.22;stroke:none}.f-c-solid{fill:#2f7d52;stroke:none}.f-d{fill:#7b4f9d}.f-d-line{stroke:#7b4f9d;stroke-width:2.2;fill:none}.f-d-fill{fill:#7b4f9d;fill-opacity:.22;stroke:none}.f-d-solid{fill:#7b4f9d;stroke:none}.f-e{fill:#a63a62}.f-e-line{stroke:#a63a62;stroke-width:2.2;fill:none}.f-e-fill{fill:#a63a62;fill-opacity:.22;stroke:none}.f-e-solid{fill:#a63a62;stroke:none}text{font-family:"Libertinus Serif","New Computer Modern",serif}</style><line x1="34" y1="186.9" x2="248" y2="186.9" class="f-grid"/><line x1="34" y1="131" x2="248" y2="131" class="f-grid"/><line x1="34" y1="75.1" x2="248" y2="75.1" class="f-grid"/><line x1="34" y1="226" x2="248" y2="226" class="f-axis"/><line x1="34" y1="36" x2="34" y2="226" class="f-axis"/><line x1="34" y1="226" x2="34" y2="230" class="f-axis"/><text x="34" y="244" font-size="12" text-anchor="middle" class="f-muted">0</text><line x1="141" y1="226" x2="141" y2="230" class="f-axis"/><text x="141" y="244" font-size="12" text-anchor="middle" class="f-muted">0.5</text><line x1="248" y1="226" x2="248" y2="230" class="f-axis"/><text x="248" y="244" font-size="12" text-anchor="middle" class="f-muted">1</text><text x="26" y="190.9" font-size="12" text-anchor="end" class="f-muted">-1</text><text x="26" y="135" font-size="12" text-anchor="end" class="f-muted">0</text><text x="26" y="79.1" font-size="12" text-anchor="end" class="f-muted">1</text><text x="34" y="24" font-size="13.5" text-anchor="start" font-weight="600" class="f-ink">degree 1: underfits</text><path d="M34,131 L34.9,129.5 L35.8,128.1 L36.7,126.6 L37.6,125.2 L38.5,123.7 L39.4,122.3 L40.2,120.8 L41.1,119.4 L42,118 L42.9,116.5 L43.8,115.1 L44.7,113.7 L45.6,112.3 L46.5,111 L47.4,109.6 L48.3,108.3 L49.2,106.9 L50,105.6 L50.9,104.3 L51.8,103.1 L52.7,101.8 L53.6,100.6 L54.5,99.3 L55.4,98.2 L56.3,97 L57.2,95.8 L58.1,94.7 L59,93.6 L59.9,92.5 L60.8,91.5 L61.6,90.5 L62.5,89.5 L63.4,88.5 L64.3,87.6 L65.2,86.7 L66.1,85.8 L67,84.9 L67.9,84.1 L68.8,83.4 L69.7,82.6 L70.6,81.9 L71.4,81.2 L72.3,80.6 L73.2,79.9 L74.1,79.4 L75,78.8 L75.9,78.3 L76.8,77.9 L77.7,77.4 L78.6,77 L79.5,76.7 L80.4,76.3 L81.3,76.1 L82.2,75.8 L83,75.6 L83.9,75.4 L84.8,75.3 L85.7,75.2 L86.6,75.1 L87.5,75.1 L88.4,75.1 L89.3,75.2 L90.2,75.3 L91.1,75.4 L92,75.6 L92.8,75.8 L93.7,76.1 L94.6,76.3 L95.5,76.7 L96.4,77 L97.3,77.4 L98.2,77.9 L99.1,78.3 L100,78.8 L100.9,79.4 L101.8,79.9 L102.7,80.6 L103.5,81.2 L104.4,81.9 L105.3,82.6 L106.2,83.4 L107.1,84.1 L108,84.9 L108.9,85.8 L109.8,86.7 L110.7,87.6 L111.6,88.5 L112.5,89.5 L113.4,90.5 L114.2,91.5 L115.1,92.5 L116,93.6 L116.9,94.7 L117.8,95.8 L118.7,97 L119.6,98.2 L120.5,99.3 L121.4,100.6 L122.3,101.8 L123.2,103.1 L124.1,104.3 L125,105.6 L125.8,106.9 L126.7,108.3 L127.6,109.6 L128.5,111 L129.4,112.3 L130.3,113.7 L131.2,115.1 L132.1,116.5 L133,118 L133.9,119.4 L134.8,120.8 L135.6,122.3 L136.5,123.7 L137.4,125.2 L138.3,126.6 L139.2,128.1 L140.1,129.5 L141,131 L141.9,132.5 L142.8,133.9 L143.7,135.4 L144.6,136.8 L145.5,138.3 L146.4,139.7 L147.2,141.2 L148.1,142.6 L149,144 L149.9,145.5 L150.8,146.9 L151.7,148.3 L152.6,149.7 L153.5,151 L154.4,152.4 L155.3,153.7 L156.2,155.1 L157.1,156.4 L157.9,157.7 L158.8,158.9 L159.7,160.2 L160.6,161.4 L161.5,162.7 L162.4,163.8 L163.3,165 L164.2,166.2 L165.1,167.3 L166,168.4 L166.9,169.5 L167.8,170.5 L168.6,171.5 L169.5,172.5 L170.4,173.5 L171.3,174.4 L172.2,175.3 L173.1,176.2 L174,177.1 L174.9,177.9 L175.8,178.6 L176.7,179.4 L177.6,180.1 L178.5,180.8 L179.3,181.4 L180.2,182.1 L181.1,182.6 L182,183.2 L182.9,183.7 L183.8,184.1 L184.7,184.6 L185.6,185 L186.5,185.3 L187.4,185.7 L188.3,185.9 L189.2,186.2 L190,186.4 L190.9,186.6 L191.8,186.7 L192.7,186.8 L193.6,186.9 L194.5,186.9 L195.4,186.9 L196.3,186.8 L197.2,186.7 L198.1,186.6 L199,186.4 L199.8,186.2 L200.7,185.9 L201.6,185.7 L202.5,185.3 L203.4,185 L204.3,184.6 L205.2,184.1 L206.1,183.7 L207,183.2 L207.9,182.6 L208.8,182.1 L209.7,181.4 L210.5,180.8 L211.4,180.1 L212.3,179.4 L213.2,178.6 L214.1,177.9 L215,177.1 L215.9,176.2 L216.8,175.3 L217.7,174.4 L218.6,173.5 L219.5,172.5 L220.4,171.5 L221.2,170.5 L222.1,169.5 L223,168.4 L223.9,167.3 L224.8,166.2 L225.7,165 L226.6,163.8 L227.5,162.7 L228.4,161.4 L229.3,160.2 L230.2,158.9 L231.1,157.7 L232,156.4 L232.8,155.1 L233.7,153.7 L234.6,152.4 L235.5,151 L236.4,149.7 L237.3,148.3 L238.2,146.9 L239.1,145.5 L240,144 L240.9,142.6 L241.8,141.2 L242.7,139.7 L243.5,138.3 L244.4,136.8 L245.3,135.4 L246.2,133.9 L247.1,132.5 L248,131" class="f-c-line f-dash"/><path d="M34,80.5 L34.9,80.9 L35.8,81.3 L36.7,81.8 L37.6,82.2 L38.5,82.6 L39.4,83.1 L40.2,83.5 L41.1,84 L42,84.4 L42.9,84.8 L43.8,85.3 L44.7,85.7 L45.6,86.2 L46.5,86.6 L47.4,87 L48.3,87.5 L49.2,87.9 L50,88.4 L50.9,88.8 L51.8,89.2 L52.7,89.7 L53.6,90.1 L54.5,90.6 L55.4,91 L56.3,91.4 L57.2,91.9 L58.1,92.3 L59,92.8 L59.9,93.2 L60.8,93.6 L61.6,94.1 L62.5,94.5 L63.4,95 L64.3,95.4 L65.2,95.8 L66.1,96.3 L67,96.7 L67.9,97.2 L68.8,97.6 L69.7,98 L70.6,98.5 L71.4,98.9 L72.3,99.4 L73.2,99.8 L74.1,100.2 L75,100.7 L75.9,101.1 L76.8,101.6 L77.7,102 L78.6,102.4 L79.5,102.9 L80.4,103.3 L81.3,103.7 L82.2,104.2 L83,104.6 L83.9,105.1 L84.8,105.5 L85.7,105.9 L86.6,106.4 L87.5,106.8 L88.4,107.3 L89.3,107.7 L90.2,108.1 L91.1,108.6 L92,109 L92.8,109.5 L93.7,109.9 L94.6,110.3 L95.5,110.8 L96.4,111.2 L97.3,111.7 L98.2,112.1 L99.1,112.5 L100,113 L100.9,113.4 L101.8,113.9 L102.7,114.3 L103.5,114.7 L104.4,115.2 L105.3,115.6 L106.2,116.1 L107.1,116.5 L108,116.9 L108.9,117.4 L109.8,117.8 L110.7,118.3 L111.6,118.7 L112.5,119.1 L113.4,119.6 L114.2,120 L115.1,120.5 L116,120.9 L116.9,121.3 L117.8,121.8 L118.7,122.2 L119.6,122.7 L120.5,123.1 L121.4,123.5 L122.3,124 L123.2,124.4 L124.1,124.8 L125,125.3 L125.8,125.7 L126.7,126.2 L127.6,126.6 L128.5,127 L129.4,127.5 L130.3,127.9 L131.2,128.4 L132.1,128.8 L133,129.2 L133.9,129.7 L134.8,130.1 L135.6,130.6 L136.5,131 L137.4,131.4 L138.3,131.9 L139.2,132.3 L140.1,132.8 L141,133.2 L141.9,133.6 L142.8,134.1 L143.7,134.5 L144.6,135 L145.5,135.4 L146.4,135.8 L147.2,136.3 L148.1,136.7 L149,137.2 L149.9,137.6 L150.8,138 L151.7,138.5 L152.6,138.9 L153.5,139.4 L154.4,139.8 L155.3,140.2 L156.2,140.7 L157.1,141.1 L157.9,141.6 L158.8,142 L159.7,142.4 L160.6,142.9 L161.5,143.3 L162.4,143.8 L163.3,144.2 L164.2,144.6 L165.1,145.1 L166,145.5 L166.9,145.9 L167.8,146.4 L168.6,146.8 L169.5,147.3 L170.4,147.7 L171.3,148.1 L172.2,148.6 L173.1,149 L174,149.5 L174.9,149.9 L175.8,150.3 L176.7,150.8 L177.6,151.2 L178.5,151.7 L179.3,152.1 L180.2,152.5 L181.1,153 L182,153.4 L182.9,153.9 L183.8,154.3 L184.7,154.7 L185.6,155.2 L186.5,155.6 L187.4,156.1 L188.3,156.5 L189.2,156.9 L190,157.4 L190.9,157.8 L191.8,158.3 L192.7,158.7 L193.6,159.1 L194.5,159.6 L195.4,160 L196.3,160.5 L197.2,160.9 L198.1,161.3 L199,161.8 L199.8,162.2 L200.7,162.7 L201.6,163.1 L202.5,163.5 L203.4,164 L204.3,164.4 L205.2,164.9 L206.1,165.3 L207,165.7 L207.9,166.2 L208.8,166.6 L209.7,167 L210.5,167.5 L211.4,167.9 L212.3,168.4 L213.2,168.8 L214.1,169.2 L215,169.7 L215.9,170.1 L216.8,170.6 L217.7,171 L218.6,171.4 L219.5,171.9 L220.4,172.3 L221.2,172.8 L222.1,173.2 L223,173.6 L223.9,174.1 L224.8,174.5 L225.7,175 L226.6,175.4 L227.5,175.8 L228.4,176.3 L229.3,176.7 L230.2,177.2 L231.1,177.6 L232,178 L232.8,178.5 L233.7,178.9 L234.6,179.4 L235.5,179.8 L236.4,180.2 L237.3,180.7 L238.2,181.1 L239.1,181.6 L240,182 L240.9,182.4 L241.8,182.9 L242.7,183.3 L243.5,183.8 L244.4,184.2 L245.3,184.6 L246.2,185.1 L247.1,185.5 L248,186" class="f-a-line"/><circle cx="34" cy="135.3" r="3" class="f-ink"/><circle cx="45.3" cy="104.3" r="3" class="f-ink"/><circle cx="56.5" cy="100.5" r="3" class="f-ink"/><circle cx="67.8" cy="89.5" r="3" class="f-ink"/><circle cx="79.1" cy="92.4" r="3" class="f-ink"/><circle cx="90.3" cy="78.9" r="3" class="f-ink"/><circle cx="101.6" cy="61.2" r="3" class="f-ink"/><circle cx="112.8" cy="82.8" r="3" class="f-ink"/><circle cx="124.1" cy="87" r="3" class="f-ink"/><circle cx="135.4" cy="117.6" r="3" class="f-ink"/><circle cx="146.6" cy="133.6" r="3" class="f-ink"/><circle cx="157.9" cy="154.5" r="3" class="f-ink"/><circle cx="169.2" cy="200" r="3" class="f-ink"/><circle cx="180.4" cy="167.8" r="3" class="f-ink"/><circle cx="191.7" cy="178.2" r="3" class="f-ink"/><circle cx="202.9" cy="176.8" r="3" class="f-ink"/><circle cx="214.2" cy="206.1" r="3" class="f-ink"/><circle cx="225.5" cy="194.6" r="3" class="f-ink"/><circle cx="236.7" cy="164.1" r="3" class="f-ink"/><circle cx="248" cy="138.8" r="3" class="f-ink"/><line x1="280" y1="186.9" x2="494" y2="186.9" class="f-grid"/><line x1="280" y1="131" x2="494" y2="131" class="f-grid"/><line x1="280" y1="75.1" x2="494" y2="75.1" class="f-grid"/><line x1="280" y1="226" x2="494" y2="226" class="f-axis"/><line x1="280" y1="226" x2="280" y2="230" class="f-axis"/><text x="280" y="244" font-size="12" text-anchor="middle" class="f-muted">0</text><line x1="387" y1="226" x2="387" y2="230" class="f-axis"/><text x="387" y="244" font-size="12" text-anchor="middle" class="f-muted">0.5</text><line x1="494" y1="226" x2="494" y2="230" class="f-axis"/><text x="494" y="244" font-size="12" text-anchor="middle" class="f-muted">1</text><text x="280" y="24" font-size="13.5" text-anchor="start" font-weight="600" class="f-ink">degree 3: about right</text><path d="M280,131 L280.9,129.5 L281.8,128.1 L282.7,126.6 L283.6,125.2 L284.5,123.7 L285.4,122.3 L286.2,120.8 L287.1,119.4 L288,118 L288.9,116.5 L289.8,115.1 L290.7,113.7 L291.6,112.3 L292.5,111 L293.4,109.6 L294.3,108.3 L295.2,106.9 L296.1,105.6 L296.9,104.3 L297.8,103.1 L298.7,101.8 L299.6,100.6 L300.5,99.3 L301.4,98.2 L302.3,97 L303.2,95.8 L304.1,94.7 L305,93.6 L305.9,92.5 L306.8,91.5 L307.6,90.5 L308.5,89.5 L309.4,88.5 L310.3,87.6 L311.2,86.7 L312.1,85.8 L313,84.9 L313.9,84.1 L314.8,83.4 L315.7,82.6 L316.6,81.9 L317.4,81.2 L318.3,80.6 L319.2,79.9 L320.1,79.4 L321,78.8 L321.9,78.3 L322.8,77.9 L323.7,77.4 L324.6,77 L325.5,76.7 L326.4,76.3 L327.3,76.1 L328.1,75.8 L329,75.6 L329.9,75.4 L330.8,75.3 L331.7,75.2 L332.6,75.1 L333.5,75.1 L334.4,75.1 L335.3,75.2 L336.2,75.3 L337.1,75.4 L338,75.6 L338.9,75.8 L339.7,76.1 L340.6,76.3 L341.5,76.7 L342.4,77 L343.3,77.4 L344.2,77.9 L345.1,78.3 L346,78.8 L346.9,79.4 L347.8,79.9 L348.7,80.6 L349.6,81.2 L350.4,81.9 L351.3,82.6 L352.2,83.4 L353.1,84.1 L354,84.9 L354.9,85.8 L355.8,86.7 L356.7,87.6 L357.6,88.5 L358.5,89.5 L359.4,90.5 L360.2,91.5 L361.1,92.5 L362,93.6 L362.9,94.7 L363.8,95.8 L364.7,97 L365.6,98.2 L366.5,99.3 L367.4,100.6 L368.3,101.8 L369.2,103.1 L370.1,104.3 L370.9,105.6 L371.8,106.9 L372.7,108.3 L373.6,109.6 L374.5,111 L375.4,112.3 L376.3,113.7 L377.2,115.1 L378.1,116.5 L379,118 L379.9,119.4 L380.8,120.8 L381.6,122.3 L382.5,123.7 L383.4,125.2 L384.3,126.6 L385.2,128.1 L386.1,129.5 L387,131 L387.9,132.5 L388.8,133.9 L389.7,135.4 L390.6,136.8 L391.5,138.3 L392.4,139.7 L393.2,141.2 L394.1,142.6 L395,144 L395.9,145.5 L396.8,146.9 L397.7,148.3 L398.6,149.7 L399.5,151 L400.4,152.4 L401.3,153.7 L402.2,155.1 L403.1,156.4 L403.9,157.7 L404.8,158.9 L405.7,160.2 L406.6,161.4 L407.5,162.7 L408.4,163.8 L409.3,165 L410.2,166.2 L411.1,167.3 L412,168.4 L412.9,169.5 L413.8,170.5 L414.6,171.5 L415.5,172.5 L416.4,173.5 L417.3,174.4 L418.2,175.3 L419.1,176.2 L420,177.1 L420.9,177.9 L421.8,178.6 L422.7,179.4 L423.6,180.1 L424.5,180.8 L425.3,181.4 L426.2,182.1 L427.1,182.6 L428,183.2 L428.9,183.7 L429.8,184.1 L430.7,184.6 L431.6,185 L432.5,185.3 L433.4,185.7 L434.3,185.9 L435.1,186.2 L436,186.4 L436.9,186.6 L437.8,186.7 L438.7,186.8 L439.6,186.9 L440.5,186.9 L441.4,186.9 L442.3,186.8 L443.2,186.7 L444.1,186.6 L445,186.4 L445.9,186.2 L446.7,185.9 L447.6,185.7 L448.5,185.3 L449.4,185 L450.3,184.6 L451.2,184.1 L452.1,183.7 L453,183.2 L453.9,182.6 L454.8,182.1 L455.7,181.4 L456.5,180.8 L457.4,180.1 L458.3,179.4 L459.2,178.6 L460.1,177.9 L461,177.1 L461.9,176.2 L462.8,175.3 L463.7,174.4 L464.6,173.5 L465.5,172.5 L466.4,171.5 L467.2,170.5 L468.1,169.5 L469,168.4 L469.9,167.3 L470.8,166.2 L471.7,165 L472.6,163.8 L473.5,162.7 L474.4,161.4 L475.3,160.2 L476.2,158.9 L477.1,157.7 L478,156.4 L478.8,155.1 L479.7,153.7 L480.6,152.4 L481.5,151 L482.4,149.7 L483.3,148.3 L484.2,146.9 L485.1,145.5 L486,144 L486.9,142.6 L487.8,141.2 L488.6,139.7 L489.5,138.3 L490.4,136.8 L491.3,135.4 L492.2,133.9 L493.1,132.5 L494,131" class="f-c-line f-dash"/><path d="M280,142.8 L280.9,140 L281.8,137.3 L282.7,134.6 L283.6,132 L284.5,129.5 L285.4,127 L286.2,124.6 L287.1,122.3 L288,120 L288.9,117.8 L289.8,115.6 L290.7,113.5 L291.6,111.5 L292.5,109.5 L293.4,107.6 L294.3,105.7 L295.2,103.9 L296.1,102.2 L296.9,100.5 L297.8,98.8 L298.7,97.3 L299.6,95.7 L300.5,94.3 L301.4,92.8 L302.3,91.5 L303.2,90.2 L304.1,88.9 L305,87.7 L305.9,86.6 L306.8,85.5 L307.6,84.4 L308.5,83.4 L309.4,82.4 L310.3,81.5 L311.2,80.7 L312.1,79.9 L313,79.1 L313.9,78.4 L314.8,77.7 L315.7,77.1 L316.6,76.5 L317.4,76 L318.3,75.5 L319.2,75.1 L320.1,74.6 L321,74.3 L321.9,74 L322.8,73.7 L323.7,73.4 L324.6,73.2 L325.5,73.1 L326.4,73 L327.3,72.9 L328.1,72.8 L329,72.8 L329.9,72.9 L330.8,72.9 L331.7,73 L332.6,73.2 L333.5,73.3 L334.4,73.6 L335.3,73.8 L336.2,74.1 L337.1,74.4 L338,74.7 L338.9,75.1 L339.7,75.5 L340.6,75.9 L341.5,76.4 L342.4,76.9 L343.3,77.4 L344.2,77.9 L345.1,78.5 L346,79.1 L346.9,79.7 L347.8,80.4 L348.7,81.1 L349.6,81.8 L350.4,82.5 L351.3,83.3 L352.2,84.1 L353.1,84.9 L354,85.7 L354.9,86.5 L355.8,87.4 L356.7,88.3 L357.6,89.2 L358.5,90.1 L359.4,91.1 L360.2,92.1 L361.1,93 L362,94.1 L362.9,95.1 L363.8,96.1 L364.7,97.2 L365.6,98.2 L366.5,99.3 L367.4,100.4 L368.3,101.5 L369.2,102.7 L370.1,103.8 L370.9,105 L371.8,106.1 L372.7,107.3 L373.6,108.5 L374.5,109.7 L375.4,110.9 L376.3,112.1 L377.2,113.3 L378.1,114.6 L379,115.8 L379.9,117 L380.8,118.3 L381.6,119.6 L382.5,120.8 L383.4,122.1 L384.3,123.4 L385.2,124.6 L386.1,125.9 L387,127.2 L387.9,128.5 L388.8,129.8 L389.7,131.1 L390.6,132.4 L391.5,133.7 L392.4,134.9 L393.2,136.2 L394.1,137.5 L395,138.8 L395.9,140.1 L396.8,141.4 L397.7,142.6 L398.6,143.9 L399.5,145.2 L400.4,146.4 L401.3,147.7 L402.2,148.9 L403.1,150.2 L403.9,151.4 L404.8,152.7 L405.7,153.9 L406.6,155.1 L407.5,156.3 L408.4,157.5 L409.3,158.7 L410.2,159.8 L411.1,161 L412,162.1 L412.9,163.3 L413.8,164.4 L414.6,165.5 L415.5,166.6 L416.4,167.7 L417.3,168.7 L418.2,169.8 L419.1,170.8 L420,171.8 L420.9,172.8 L421.8,173.8 L422.7,174.7 L423.6,175.7 L424.5,176.6 L425.3,177.5 L426.2,178.4 L427.1,179.2 L428,180.1 L428.9,180.9 L429.8,181.7 L430.7,182.4 L431.6,183.2 L432.5,183.9 L433.4,184.6 L434.3,185.3 L435.1,185.9 L436,186.5 L436.9,187.1 L437.8,187.7 L438.7,188.2 L439.6,188.7 L440.5,189.2 L441.4,189.6 L442.3,190.1 L443.2,190.5 L444.1,190.8 L445,191.1 L445.9,191.4 L446.7,191.7 L447.6,191.9 L448.5,192.1 L449.4,192.2 L450.3,192.4 L451.2,192.4 L452.1,192.5 L453,192.5 L453.9,192.5 L454.8,192.4 L455.7,192.3 L456.5,192.2 L457.4,192 L458.3,191.8 L459.2,191.5 L460.1,191.2 L461,190.9 L461.9,190.5 L462.8,190.1 L463.7,189.6 L464.6,189.1 L465.5,188.5 L466.4,187.9 L467.2,187.3 L468.1,186.6 L469,185.8 L469.9,185 L470.8,184.2 L471.7,183.3 L472.6,182.4 L473.5,181.4 L474.4,180.4 L475.3,179.3 L476.2,178.2 L477.1,177 L478,175.8 L478.8,174.5 L479.7,173.1 L480.6,171.8 L481.5,170.3 L482.4,168.8 L483.3,167.3 L484.2,165.7 L485.1,164 L486,162.3 L486.9,160.5 L487.8,158.7 L488.6,156.8 L489.5,154.8 L490.4,152.8 L491.3,150.7 L492.2,148.6 L493.1,146.4 L494,144.2" class="f-a-line"/><circle cx="280" cy="135.3" r="3" class="f-ink"/><circle cx="291.3" cy="104.3" r="3" class="f-ink"/><circle cx="302.5" cy="100.5" r="3" class="f-ink"/><circle cx="313.8" cy="89.5" r="3" class="f-ink"/><circle cx="325.1" cy="92.4" r="3" class="f-ink"/><circle cx="336.3" cy="78.9" r="3" class="f-ink"/><circle cx="347.6" cy="61.2" r="3" class="f-ink"/><circle cx="358.8" cy="82.8" r="3" class="f-ink"/><circle cx="370.1" cy="87" r="3" class="f-ink"/><circle cx="381.4" cy="117.6" r="3" class="f-ink"/><circle cx="392.6" cy="133.6" r="3" class="f-ink"/><circle cx="403.9" cy="154.5" r="3" class="f-ink"/><circle cx="415.2" cy="200" r="3" class="f-ink"/><circle cx="426.4" cy="167.8" r="3" class="f-ink"/><circle cx="437.7" cy="178.2" r="3" class="f-ink"/><circle cx="448.9" cy="176.8" r="3" class="f-ink"/><circle cx="460.2" cy="206.1" r="3" class="f-ink"/><circle cx="471.5" cy="194.6" r="3" class="f-ink"/><circle cx="482.7" cy="164.1" r="3" class="f-ink"/><circle cx="494" cy="138.8" r="3" class="f-ink"/><line x1="526" y1="186.9" x2="740" y2="186.9" class="f-grid"/><line x1="526" y1="131" x2="740" y2="131" class="f-grid"/><line x1="526" y1="75.1" x2="740" y2="75.1" class="f-grid"/><line x1="526" y1="226" x2="740" y2="226" class="f-axis"/><line x1="526" y1="226" x2="526" y2="230" class="f-axis"/><text x="526" y="244" font-size="12" text-anchor="middle" class="f-muted">0</text><line x1="633" y1="226" x2="633" y2="230" class="f-axis"/><text x="633" y="244" font-size="12" text-anchor="middle" class="f-muted">0.5</text><line x1="740" y1="226" x2="740" y2="230" class="f-axis"/><text x="740" y="244" font-size="12" text-anchor="middle" class="f-muted">1</text><text x="526" y="24" font-size="13.5" text-anchor="start" font-weight="600" class="f-ink">degree 12: overfits</text><path d="M526,131 L526.9,129.5 L527.8,128.1 L528.7,126.6 L529.6,125.2 L530.5,123.7 L531.4,122.3 L532.2,120.8 L533.1,119.4 L534,118 L534.9,116.5 L535.8,115.1 L536.7,113.7 L537.6,112.3 L538.5,111 L539.4,109.6 L540.3,108.3 L541.2,106.9 L542,105.6 L542.9,104.3 L543.8,103.1 L544.7,101.8 L545.6,100.6 L546.5,99.3 L547.4,98.2 L548.3,97 L549.2,95.8 L550.1,94.7 L551,93.6 L551.9,92.5 L552.8,91.5 L553.6,90.5 L554.5,89.5 L555.4,88.5 L556.3,87.6 L557.2,86.7 L558.1,85.8 L559,84.9 L559.9,84.1 L560.8,83.4 L561.7,82.6 L562.6,81.9 L563.5,81.2 L564.3,80.6 L565.2,79.9 L566.1,79.4 L567,78.8 L567.9,78.3 L568.8,77.9 L569.7,77.4 L570.6,77 L571.5,76.7 L572.4,76.3 L573.3,76.1 L574.1,75.8 L575,75.6 L575.9,75.4 L576.8,75.3 L577.7,75.2 L578.6,75.1 L579.5,75.1 L580.4,75.1 L581.3,75.2 L582.2,75.3 L583.1,75.4 L584,75.6 L584.9,75.8 L585.7,76.1 L586.6,76.3 L587.5,76.7 L588.4,77 L589.3,77.4 L590.2,77.9 L591.1,78.3 L592,78.8 L592.9,79.4 L593.8,79.9 L594.7,80.6 L595.5,81.2 L596.4,81.9 L597.3,82.6 L598.2,83.4 L599.1,84.1 L600,84.9 L600.9,85.8 L601.8,86.7 L602.7,87.6 L603.6,88.5 L604.5,89.5 L605.4,90.5 L606.2,91.5 L607.1,92.5 L608,93.6 L608.9,94.7 L609.8,95.8 L610.7,97 L611.6,98.2 L612.5,99.3 L613.4,100.6 L614.3,101.8 L615.2,103.1 L616.1,104.3 L617,105.6 L617.8,106.9 L618.7,108.3 L619.6,109.6 L620.5,111 L621.4,112.3 L622.3,113.7 L623.2,115.1 L624.1,116.5 L625,118 L625.9,119.4 L626.8,120.8 L627.6,122.3 L628.5,123.7 L629.4,125.2 L630.3,126.6 L631.2,128.1 L632.1,129.5 L633,131 L633.9,132.5 L634.8,133.9 L635.7,135.4 L636.6,136.8 L637.5,138.3 L638.4,139.7 L639.2,141.2 L640.1,142.6 L641,144 L641.9,145.5 L642.8,146.9 L643.7,148.3 L644.6,149.7 L645.5,151 L646.4,152.4 L647.3,153.7 L648.2,155.1 L649,156.4 L649.9,157.7 L650.8,158.9 L651.7,160.2 L652.6,161.4 L653.5,162.7 L654.4,163.8 L655.3,165 L656.2,166.2 L657.1,167.3 L658,168.4 L658.9,169.5 L659.8,170.5 L660.6,171.5 L661.5,172.5 L662.4,173.5 L663.3,174.4 L664.2,175.3 L665.1,176.2 L666,177.1 L666.9,177.9 L667.8,178.6 L668.7,179.4 L669.6,180.1 L670.5,180.8 L671.3,181.4 L672.2,182.1 L673.1,182.6 L674,183.2 L674.9,183.7 L675.8,184.1 L676.7,184.6 L677.6,185 L678.5,185.3 L679.4,185.7 L680.3,185.9 L681.1,186.2 L682,186.4 L682.9,186.6 L683.8,186.7 L684.7,186.8 L685.6,186.9 L686.5,186.9 L687.4,186.9 L688.3,186.8 L689.2,186.7 L690.1,186.6 L691,186.4 L691.9,186.2 L692.7,185.9 L693.6,185.7 L694.5,185.3 L695.4,185 L696.3,184.6 L697.2,184.1 L698.1,183.7 L699,183.2 L699.9,182.6 L700.8,182.1 L701.7,181.4 L702.5,180.8 L703.4,180.1 L704.3,179.4 L705.2,178.6 L706.1,177.9 L707,177.1 L707.9,176.2 L708.8,175.3 L709.7,174.4 L710.6,173.5 L711.5,172.5 L712.4,171.5 L713.2,170.5 L714.1,169.5 L715,168.4 L715.9,167.3 L716.8,166.2 L717.7,165 L718.6,163.8 L719.5,162.7 L720.4,161.4 L721.3,160.2 L722.2,158.9 L723.1,157.7 L724,156.4 L724.8,155.1 L725.7,153.7 L726.6,152.4 L727.5,151 L728.4,149.7 L729.3,148.3 L730.2,146.9 L731.1,145.5 L732,144 L732.9,142.6 L733.8,141.2 L734.6,139.7 L735.5,138.3 L736.4,136.8 L737.3,135.4 L738.2,133.9 L739.1,132.5 L740,131" class="f-c-line f-dash"/><path d="M526,135.1 L526.9,138.4 L527.8,139.4 L528.7,138.6 L529.6,136.6 L530.5,133.6 L531.4,130.1 L532.2,126.2 L533.1,122.2 L534,118.2 L534.9,114.4 L535.8,110.8 L536.7,107.6 L537.6,104.7 L538.5,102.1 L539.4,100 L540.3,98.2 L541.2,96.8 L542,95.8 L542.9,95.1 L543.8,94.6 L544.7,94.4 L545.6,94.4 L546.5,94.6 L547.4,94.9 L548.3,95.3 L549.2,95.8 L550.1,96.3 L551,96.8 L551.9,97.3 L552.8,97.8 L553.6,98.2 L554.5,98.5 L555.4,98.7 L556.3,98.9 L557.2,98.9 L558.1,98.8 L559,98.6 L559.9,98.3 L560.8,97.8 L561.7,97.3 L562.6,96.6 L563.5,95.8 L564.3,95 L565.2,94.1 L566.1,93.1 L567,92 L567.9,90.9 L568.8,89.7 L569.7,88.5 L570.6,87.3 L571.5,86.1 L572.4,84.9 L573.3,83.7 L574.1,82.6 L575,81.4 L575.9,80.3 L576.8,79.2 L577.7,78.2 L578.6,77.3 L579.5,76.4 L580.4,75.6 L581.3,74.8 L582.2,74.1 L583.1,73.5 L584,72.9 L584.9,72.5 L585.7,72.1 L586.6,71.7 L587.5,71.5 L588.4,71.3 L589.3,71.2 L590.2,71.2 L591.1,71.2 L592,71.3 L592.9,71.4 L593.8,71.6 L594.7,71.9 L595.5,72.2 L596.4,72.5 L597.3,72.9 L598.2,73.3 L599.1,73.8 L600,74.3 L600.9,74.9 L601.8,75.5 L602.7,76.1 L603.6,76.8 L604.5,77.4 L605.4,78.2 L606.2,78.9 L607.1,79.7 L608,80.5 L608.9,81.4 L609.8,82.3 L610.7,83.2 L611.6,84.2 L612.5,85.2 L613.4,86.2 L614.3,87.3 L615.2,88.5 L616.1,89.6 L617,90.9 L617.8,92.2 L618.7,93.5 L619.6,94.9 L620.5,96.4 L621.4,97.9 L622.3,99.4 L623.2,101.1 L624.1,102.8 L625,104.5 L625.9,106.3 L626.8,108.2 L627.6,110.2 L628.5,112.1 L629.4,114.2 L630.3,116.3 L631.2,118.5 L632.1,120.7 L633,122.9 L633.9,125.2 L634.8,127.5 L635.7,129.9 L636.6,132.2 L637.5,134.6 L638.4,137 L639.2,139.4 L640.1,141.8 L641,144.2 L641.9,146.6 L642.8,149 L643.7,151.3 L644.6,153.6 L645.5,155.9 L646.4,158.1 L647.3,160.2 L648.2,162.3 L649,164.3 L649.9,166.2 L650.8,168 L651.7,169.8 L652.6,171.4 L653.5,172.9 L654.4,174.3 L655.3,175.6 L656.2,176.8 L657.1,177.9 L658,178.9 L658.9,179.7 L659.8,180.4 L660.6,181 L661.5,181.5 L662.4,181.8 L663.3,182.1 L664.2,182.2 L665.1,182.2 L666,182.1 L666.9,182 L667.8,181.7 L668.7,181.4 L669.6,181 L670.5,180.5 L671.3,180 L672.2,179.4 L673.1,178.8 L674,178.2 L674.9,177.6 L675.8,177 L676.7,176.4 L677.6,175.8 L678.5,175.3 L679.4,174.8 L680.3,174.3 L681.1,174 L682,173.7 L682.9,173.5 L683.8,173.4 L684.7,173.4 L685.6,173.5 L686.5,173.8 L687.4,174.1 L688.3,174.6 L689.2,175.2 L690.1,175.9 L691,176.7 L691.9,177.7 L692.7,178.8 L693.6,180 L694.5,181.2 L695.4,182.6 L696.3,184 L697.2,185.6 L698.1,187.1 L699,188.7 L699.9,190.3 L700.8,191.9 L701.7,193.5 L702.5,195.1 L703.4,196.6 L704.3,198 L705.2,199.3 L706.1,200.5 L707,201.6 L707.9,202.5 L708.8,203.2 L709.7,203.7 L710.6,204 L711.5,204 L712.4,203.8 L713.2,203.4 L714.1,202.7 L715,201.7 L715.9,200.5 L716.8,199 L717.7,197.3 L718.6,195.3 L719.5,193 L720.4,190.6 L721.3,188 L722.2,185.2 L723.1,182.3 L724,179.3 L724.8,176.2 L725.7,173.1 L726.6,170.1 L727.5,167.1 L728.4,164.2 L729.3,161.4 L730.2,158.8 L731.1,156.4 L732,154.3 L732.9,152.3 L733.8,150.6 L734.6,149.1 L735.5,147.7 L736.4,146.4 L737.3,145 L738.2,143.4 L739.1,141.5 L740,139" class="f-a-line"/><circle cx="526" cy="135.3" r="3" class="f-ink"/><circle cx="537.3" cy="104.3" r="3" class="f-ink"/><circle cx="548.5" cy="100.5" r="3" class="f-ink"/><circle cx="559.8" cy="89.5" r="3" class="f-ink"/><circle cx="571.1" cy="92.4" r="3" class="f-ink"/><circle cx="582.3" cy="78.9" r="3" class="f-ink"/><circle cx="593.6" cy="61.2" r="3" class="f-ink"/><circle cx="604.8" cy="82.8" r="3" class="f-ink"/><circle cx="616.1" cy="87" r="3" class="f-ink"/><circle cx="627.4" cy="117.6" r="3" class="f-ink"/><circle cx="638.6" cy="133.6" r="3" class="f-ink"/><circle cx="649.9" cy="154.5" r="3" class="f-ink"/><circle cx="661.2" cy="200" r="3" class="f-ink"/><circle cx="672.4" cy="167.8" r="3" class="f-ink"/><circle cx="683.7" cy="178.2" r="3" class="f-ink"/><circle cx="694.9" cy="176.8" r="3" class="f-ink"/><circle cx="706.2" cy="206.1" r="3" class="f-ink"/><circle cx="717.5" cy="194.6" r="3" class="f-ink"/><circle cx="728.7" cy="164.1" r="3" class="f-ink"/><circle cx="740" cy="138.8" r="3" class="f-ink"/><line x1="34" y1="268" x2="60" y2="268" class="f-c-line f-dash"/><text x="66" y="272" font-size="12.5" text-anchor="start" class="f-muted">true function</text><circle cx="200" cy="268" r="3" class="f-ink"/><text x="210" y="272" font-size="12.5" text-anchor="start" class="f-muted">training data</text><line x1="330" y1="268" x2="356" y2="268" class="f-a-line"/><text x="362" y="272" font-size="12.5" text-anchor="start" class="f-muted">fitted polynomial</text></svg>